HIERARCHY
ROOT Hips
{
	OFFSET 0.000000 0.000000 0.000000
	CHANNELS 6 Xposition Yposition Zposition Zrotation Yrotation Xrotation 
	JOINT LHipJoint
	{
		OFFSET 0.000000 0.000000 0.000000
		CHANNELS 3 Zrotation Yrotation Xrotation
		JOINT LeftUpLeg
		{
			OFFSET 1.363060 -1.794630 0.839290
			CHANNELS 3 Zrotation Yrotation Xrotation
			JOINT LeftLeg
			{
				OFFSET 2.448110 -6.726130 0.000000
				CHANNELS 3 Zrotation Yrotation Xrotation
				JOINT LeftFoot
				{
					OFFSET 2.562200 -7.039590 0.000000
					CHANNELS 3 Zrotation Yrotation Xrotation
					JOINT LeftToeBase
					{
						OFFSET 0.157640 -0.433110 2.322550
						CHANNELS 3 Zrotation Yrotation Xrotation
						End Site
						{
							OFFSET 0.000000 0.000000 0.000000
						}
					}
				}
			}
		}
	}
	JOINT RHipJoint
	{
		OFFSET 0.000000 0.000000 0.000000
		CHANNELS 3 Zrotation Yrotation Xrotation
		JOINT RightUpLeg
		{
			OFFSET -1.305520 -1.794630 0.839290
			CHANNELS 3 Zrotation Yrotation Xrotation
			JOINT RightLeg
			{
				OFFSET -2.542530 -6.985550 0.000000
				CHANNELS 3 Zrotation Yrotation Xrotation
				JOINT RightFoot
				{
					OFFSET -2.568260 -7.056230 0.000000
					CHANNELS 3 Zrotation Yrotation Xrotation
					JOINT RightToeBase
					{
						OFFSET -0.164730 -0.452590 2.363150
						CHANNELS 3 Zrotation Yrotation Xrotation
						End Site
						{
							OFFSET 0.000000 0.000000 0.000000
						}
					}
				}
			}
		}
	}
	JOINT LowerBack
	{
		OFFSET 0.000000 0.000000 0.000000
		CHANNELS 3 Zrotation Yrotation Xrotation
		JOINT Spine
		{
			OFFSET 0.028270 2.035590 -0.193380
			CHANNELS 3 Zrotation Yrotation Xrotation
			JOINT Spine1
			{
				OFFSET 0.056720 2.048850 -0.042750
				CHANNELS 3 Zrotation Yrotation Xrotation
				JOINT Neck
				{
					OFFSET 0.000000 0.000000 0.000000
					CHANNELS 3 Zrotation Yrotation Xrotation
					JOINT Neck1
					{
						OFFSET -0.054170 1.746240 0.172020
						CHANNELS 3 Zrotation Yrotation Xrotation
						JOINT Head
						{
							OFFSET 0.104070 1.761360 -0.123970
							CHANNELS 3 Zrotation Yrotation Xrotation
							End Site
							{
								OFFSET 0.000000 0.000000 0.000000
							}
						}
					}
				}
				JOINT LeftShoulder
				{
					OFFSET 0.000000 0.000000 0.000000
					CHANNELS 3 Zrotation Yrotation Xrotation
					JOINT LeftArm
					{
						OFFSET 3.362410 1.200890 -0.311210
						CHANNELS 3 Zrotation Yrotation Xrotation
						JOINT LeftForeArm
						{
							OFFSET 4.983000 -0.000000 -0.000000
							CHANNELS 3 Zrotation Yrotation Xrotation
							JOINT LeftHand
							{
								OFFSET 3.483560 -0.000000 -0.000000
								CHANNELS 3 Zrotation Yrotation Xrotation
								JOINT LeftFingerBase
								{
									OFFSET 0.000000 0.000000 0.000000
									CHANNELS 3 Zrotation Yrotation Xrotation
									JOINT LeftHandIndex1
									{
										OFFSET 0.715260 -0.000000 -0.000000
										CHANNELS 3 Zrotation Yrotation Xrotation
										End Site
										{
											OFFSET 0.000000 0.000000 0.000000
										}
									}
								}
								JOINT LThumb
								{
									OFFSET 0.000000 0.000000 0.000000
									CHANNELS 3 Zrotation Yrotation Xrotation
									End Site
									{
										OFFSET 0.000000 0.000000 0.000000
									}
								}
							}
						}
					}
				}
				JOINT RightShoulder
				{
					OFFSET 0.000000 0.000000 0.000000
					CHANNELS 3 Zrotation Yrotation Xrotation
					JOINT RightArm
					{
						OFFSET -3.136600 1.374050 -0.404650
						CHANNELS 3 Zrotation Yrotation Xrotation
						JOINT RightForeArm
						{
							OFFSET -5.241900 -0.000000 -0.000000
							CHANNELS 3 Zrotation Yrotation Xrotation
							JOINT RightHand
							{
								OFFSET -3.444170 -0.000000 -0.000000
								CHANNELS 3 Zrotation Yrotation Xrotation
								JOINT RightFingerBase
								{
									OFFSET 0.000000 0.000000 0.000000
									CHANNELS 3 Zrotation Yrotation Xrotation
									JOINT RightHandIndex1
									{
										OFFSET -0.622530 -0.000000 -0.000000
										CHANNELS 3 Zrotation Yrotation Xrotation
										End Site
										{
											OFFSET 0.000000 0.000000 0.000000
										}
									}
								}
								JOINT RThumb
								{
									OFFSET 0.000000 0.000000 0.000000
									CHANNELS 3 Zrotation Yrotation Xrotation
									End Site
									{
										OFFSET 0.000000 0.000000 0.000000
									}
								}
							}
						}
					}
				}
			}
		}
	}
}
MOTION
Frames: 6
Frame Time: 0.008333
11.731756 18.051507 10.635207 -0.021755 5.028821 3.810649 -3.732278 -3.496193 -0.342408 -16.356327 1.826541 5.219945 -0.689758 4.133873 8.068996 2.017136 -9.120164 8.233620 4.346700 12.608000 37.918300 0.210894 3.189460 -3.693348 13.577291 3.800506 -16.810916 -0.010410 -7.767745 17.971320 0.463663 -12.284720 -21.237944 -0.013400 -0.748800 2.057700 -2.512468 -0.139114 -0.002897 0.577269 -0.144253 -4.756359 -0.970616 0.022361 2.545196 -0.853471 -0.701164 -4.549214 5.671498 -1.642659 18.021157 1.194400 -0.318400 3.746800 -0.547723 -8.503534 2.711233 -74.069270 -16.440540 50.657499 17.523221 -23.192758 -3.613518 0.419371 0.362837 -13.634560 14.094324 -8.897728 -2.210400 -7.125000 0.000000 0.000000 -9.547600 20.598700 5.656000 0.566065 9.284991 2.716385 91.165787 -16.414035 11.813871 -12.788491 16.619203 -3.647584 1.561071 2.216152 6.911588 7.112378 -45.177013 -4.364800 7.125000 0.000000 0.000000 63.813300 -67.262900 -40.230500 
11.733450 18.026500 10.795914 0.053707 5.247318 3.971263 -3.727072 -3.494141 -0.331372 -16.355559 1.930265 5.474196 -0.664881 4.190953 8.234865 2.059540 -9.635118 8.316352 4.406800 12.682900 38.192900 0.231093 3.199277 -3.682273 13.442968 4.596942 -16.525961 0.266846 -6.950122 15.650435 0.511815 -13.155596 -22.550985 -0.006400 -0.516800 1.420100 -2.580941 -0.185099 -0.176817 0.611227 -0.199055 -4.798727 -0.875540 -0.004212 2.556894 -0.916082 -0.709421 -4.478373 6.008996 -1.736647 18.279502 1.306600 -0.346800 3.821500 -0.536153 -8.511931 2.725300 -73.911732 -16.602934 50.517594 18.153585 -23.943053 -3.867030 0.425560 0.360069 -13.959960 14.365700 -9.049305 -2.290500 -7.125000 0.000000 0.000000 -9.353700 20.438500 5.572200 0.570635 9.265636 2.711554 91.378567 -16.643406 11.680493 -12.713859 16.529031 -3.627659 1.551937 2.223183 7.110770 7.537429 -45.219155 -4.699400 7.125000 0.000000 0.000000 64.279700 -67.151200 -40.476000 
11.736040 17.999998 10.958114 0.167088 5.443740 4.128717 -3.721681 -3.493122 -0.321443 -16.399805 2.048705 5.725914 -0.639137 4.255919 8.419715 2.098723 -10.156800 8.391413 4.463200 12.752500 38.448900 0.249775 3.210072 -3.672767 13.261640 5.330929 -16.258028 0.495230 -6.152727 13.427960 0.564360 -13.977437 -23.688116 -0.000800 -0.178500 0.490400 -2.672226 -0.233790 -0.344640 0.639498 -0.255134 -4.834922 -0.779749 -0.032275 2.579021 -0.955646 -0.720965 -4.427331 6.289199 -1.822217 18.507490 1.397100 -0.372600 3.889700 -0.525598 -8.516376 2.738261 -73.769250 -16.725470 50.309561 18.813229 -24.722402 -4.140554 0.430889 0.354303 -14.306775 14.588843 -9.168785 -2.355200 -7.125000 0.000000 0.000000 -9.194900 20.315800 5.500900 0.575769 9.248868 2.707509 91.549122 -16.840201 11.600777 -12.636225 16.434806 -3.604961 1.546376 2.227087 7.322423 7.887489 -45.217988 -4.972600 7.125000 0.000000 0.000000 64.587000 -67.041800 -40.592700 
11.739428 17.972499 11.121810 0.312825 5.622294 4.284083 -3.715804 -3.493452 -0.312988 -16.485205 2.175231 5.973391 -0.612145 4.331473 8.631315 2.134968 -10.690031 8.473549 4.530400 12.834700 38.752700 0.266151 3.221993 -3.665009 13.033211 6.057275 -15.966076 0.678863 -5.372887 11.285732 0.616684 -14.717526 -24.653980 -0.000400 0.131800 -0.362100 -2.784172 -0.287705 -0.508541 0.664382 -0.316006 -4.863729 -0.680916 -0.063484 2.616352 -0.984387 -0.730921 -4.393962 6.527362 -1.895476 18.684651 1.472900 -0.394700 3.944100 -0.515696 -8.518105 2.750144 -73.639206 -16.813768 50.057522 19.494984 -25.520513 -4.432655 0.435219 0.347078 -14.691769 14.795807 -9.270608 -2.413300 -7.125000 0.000000 0.000000 -9.047500 20.213200 5.431600 0.581042 9.233026 2.704627 91.673153 -17.000160 11.582213 -12.573909 16.360506 -3.588997 1.535483 2.235694 7.511830 8.338558 -45.257589 -5.329300 7.125000 0.000000 0.000000 65.068000 -66.920800 -40.839300 
11.743612 17.944204 11.287298 0.475525 5.788731 4.436029 -3.709215 -3.495212 -0.305947 -16.595169 2.304886 6.221364 -0.583988 4.415451 8.866105 2.167435 -11.225605 8.587230 4.633100 12.958300 39.212400 0.280967 3.235526 -3.658054 12.761334 6.880686 -15.585663 0.822719 -4.606723 9.203617 0.655189 -15.336275 -25.532081 -0.001800 0.273500 -0.751300 -2.901279 -0.347857 -0.666257 0.689238 -0.383982 -4.887972 -0.581976 -0.098377 2.662083 -1.011785 -0.734430 -4.371299 6.731784 -1.950764 18.809633 1.538400 -0.410700 3.982900 -0.506242 -8.517967 2.760720 -73.529934 -16.851044 49.762753 20.196406 -26.333989 -4.743687 0.438791 0.339541 -15.074893 15.022621 -9.362784 -2.473400 -7.125000 0.000000 0.000000 -8.886000 20.119100 5.351200 0.585750 9.217305 2.702692 91.761050 -17.134178 11.598074 -12.540375 16.321919 -3.583444 1.517445 2.249644 7.681016 8.925934 -45.341714 -5.799000 7.125000 0.000000 0.000000 65.758700 -66.778300 -41.234600 
11.748295 17.915111 11.454082 0.636483 5.942367 4.583753 -3.702145 -3.498126 -0.300221 -16.709728 2.419515 6.475941 -0.554929 4.508943 9.127937 2.195511 -11.754782 8.729324 4.775800 13.126800 39.844900 0.295259 3.250719 -3.650289 12.452302 7.924054 -15.071523 0.933117 -3.857473 7.181840 0.676137 -15.869826 -26.430792 -0.001200 0.228000 -0.626400 -3.005264 -0.412805 -0.810566 0.716551 -0.458771 -4.911489 -0.488317 -0.136444 2.703686 -1.041961 -0.733293 -4.354531 6.912320 -1.992988 18.892429 1.597400 -0.422500 4.009000 -0.497177 -8.516812 2.769978 -73.444591 -16.824100 49.418306 20.915923 -27.160236 -5.074229 0.442094 0.332344 -15.409127 15.292558 -9.451843 -2.541500 -7.125000 0.000000 0.000000 -8.693700 20.024600 5.251300 0.589950 9.201647 2.701016 91.820940 -17.247111 11.632667 -12.529766 16.311113 -3.585415 1.495699 2.266060 7.816771 9.558973 -45.444330 -6.309300 7.125000 0.000000 0.000000 66.522700 -66.629400 -41.685800 
